# Blender 3.4.1
# www.blender.org
mtllib bigflowerpot.mtl
o base
v 0.937500 0.125000 0.937500
v 0.937500 0.125000 0.062500
v 0.937500 -0.000000 0.937500
v 0.937500 -0.000000 0.062500
v 0.062500 0.125000 0.062500
v 0.062500 0.125000 0.937500
v 0.062500 -0.000000 0.062500
v 0.062500 -0.000000 0.937500
vn -0.0000 -0.0000 -1.0000
vn 1.0000 -0.0000 -0.0000
vn -0.0000 -0.0000 1.0000
vn -1.0000 -0.0000 -0.0000
vn -0.0000 1.0000 -0.0000
vn -0.0000 -1.0000 -0.0000
vt 0.000000 1.000000
vt 0.875000 1.000000
vt 0.875000 0.125000
vt 0.000000 1.000000
vt 0.875000 1.000000
vt 0.000000 0.875000
vt 0.875000 0.875000
vt 0.875000 1.000000
vt 0.000000 0.875000
vt 0.875000 0.875000
vt 0.875000 0.125000
vt 0.875000 1.000000
vt 0.000000 1.000000
vt 0.000000 1.000000
vt 0.875000 1.000000
vt 0.000000 0.125000
vt 0.875000 0.875000
vt 0.000000 0.875000
vt 0.000000 0.125000
vt 0.000000 0.875000
vt 0.875000 0.875000
vt 0.000000 1.000000
s 0
usemtl Flowerpot
f 4/9/1 7/17/1 5/12/1 2/4/1
f 3/6/2 4/10/2 2/5/2 1/1/2
f 8/20/3 3/7/3 1/2/3 6/14/3
f 7/18/4 8/21/4 6/15/4 5/13/4
f 6/16/5 1/3/5 2/5/5 5/13/5
f 7/19/6 4/11/6 3/8/6 8/22/6
o layer2
v 0.812500 0.250000 0.812500
v 0.812500 0.250000 0.187500
v 0.812500 0.125000 0.812500
v 0.812500 0.125000 0.187500
v 0.187500 0.250000 0.187500
v 0.187500 0.250000 0.812500
v 0.187500 0.125000 0.187500
v 0.187500 0.125000 0.812500
vn -0.0000 -0.0000 -1.0000
vn 1.0000 -0.0000 -0.0000
vn -0.0000 -0.0000 1.0000
vn -1.0000 -0.0000 -0.0000
vn -0.0000 1.0000 -0.0000
vn -0.0000 -1.0000 -0.0000
vt 0.000000 1.000000
vt 0.625000 1.000000
vt 0.625000 0.375000
vt 0.000000 1.000000
vt 0.625000 1.000000
vt 0.000000 0.875000
vt 0.625000 0.875000
vt 0.625000 1.000000
vt 0.000000 0.875000
vt 0.625000 0.875000
vt 0.625000 0.375000
vt 0.625000 1.000000
vt 0.000000 1.000000
vt 0.000000 1.000000
vt 0.625000 1.000000
vt 0.000000 0.375000
vt 0.625000 0.875000
vt 0.000000 0.875000
vt 0.000000 0.375000
vt 0.000000 0.875000
vt 0.625000 0.875000
vt 0.000000 1.000000
s 0
usemtl Flowerpot
f 12/31/7 15/39/7 13/34/7 10/26/7
f 11/28/8 12/32/8 10/27/8 9/23/8
f 16/42/9 11/29/9 9/24/9 14/36/9
f 15/40/10 16/43/10 14/37/10 13/35/10
f 14/38/11 9/25/11 10/27/11 13/35/11
f 15/41/12 12/33/12 11/30/12 16/44/12
o layer3
v 0.750000 0.375000 0.750000
v 0.750000 0.375000 0.250000
v 0.750000 0.250000 0.750000
v 0.750000 0.250000 0.250000
v 0.250000 0.375000 0.250000
v 0.250000 0.375000 0.750000
v 0.250000 0.250000 0.250000
v 0.250000 0.250000 0.750000
vn -0.0000 -0.0000 -1.0000
vn 1.0000 -0.0000 -0.0000
vn -0.0000 -0.0000 1.0000
vn -1.0000 -0.0000 -0.0000
vn -0.0000 1.0000 -0.0000
vn -0.0000 -1.0000 -0.0000
vt 0.000000 1.000000
vt 0.500000 1.000000
vt 0.500000 0.500000
vt 0.000000 1.000000
vt 0.500000 1.000000
vt 0.000000 0.875000
vt 0.500000 0.875000
vt 0.500000 1.000000
vt 0.000000 0.875000
vt 0.500000 0.875000
vt 0.500000 0.500000
vt 0.500000 1.000000
vt 0.000000 1.000000
vt 0.000000 1.000000
vt 0.500000 1.000000
vt 0.000000 0.500000
vt 0.500000 0.875000
vt 0.000000 0.875000
vt 0.000000 0.500000
vt 0.000000 0.875000
vt 0.500000 0.875000
vt 0.000000 1.000000
s 0
usemtl Flowerpot
f 20/53/13 23/61/13 21/56/13 18/48/13
f 19/50/14 20/54/14 18/49/14 17/45/14
f 24/64/15 19/51/15 17/46/15 22/58/15
f 23/62/16 24/65/16 22/59/16 21/57/16
f 22/60/17 17/47/17 18/49/17 21/57/17
f 23/63/18 20/55/18 19/52/18 24/66/18
o layer4
v 0.812500 0.500000 0.812500
v 0.812500 0.500000 0.187500
v 0.812500 0.375000 0.812500
v 0.812500 0.375000 0.187500
v 0.187500 0.500000 0.187500
v 0.187500 0.500000 0.812500
v 0.187500 0.375000 0.187500
v 0.187500 0.375000 0.812500
vn -0.0000 -0.0000 -1.0000
vn 1.0000 -0.0000 -0.0000
vn -0.0000 -0.0000 1.0000
vn -1.0000 -0.0000 -0.0000
vn -0.0000 1.0000 -0.0000
vn -0.0000 -1.0000 -0.0000
vt 0.000000 1.000000
vt 0.625000 1.000000
vt 0.625000 0.375000
vt 0.000000 1.000000
vt 0.625000 1.000000
vt 0.000000 0.875000
vt 0.625000 0.875000
vt 0.625000 1.000000
vt 0.000000 0.875000
vt 0.625000 0.875000
vt 0.625000 0.375000
vt 0.625000 1.000000
vt 0.000000 1.000000
vt 0.000000 1.000000
vt 0.625000 1.000000
vt 0.000000 0.375000
vt 0.625000 0.875000
vt 0.000000 0.875000
vt 0.000000 0.375000
vt 0.000000 0.875000
vt 0.625000 0.875000
vt 0.000000 1.000000
s 0
usemtl Flowerpot
f 28/75/19 31/83/19 29/78/19 26/70/19
f 27/72/20 28/76/20 26/71/20 25/67/20
f 32/86/21 27/73/21 25/68/21 30/80/21
f 31/84/22 32/87/22 30/81/22 29/79/22
f 30/82/23 25/69/23 26/71/23 29/79/23
f 31/85/24 28/77/24 27/74/24 32/88/24
o layer5
v 0.937500 0.750000 0.937500
v 0.937500 0.750000 0.062500
v 0.937500 0.500000 0.937500
v 0.937500 0.500000 0.062500
v 0.062500 0.750000 0.062500
v 0.062500 0.750000 0.937500
v 0.062500 0.500000 0.062500
v 0.062500 0.500000 0.937500
vn -0.0000 -0.0000 -1.0000
vn 1.0000 -0.0000 -0.0000
vn -0.0000 -0.0000 1.0000
vn -1.0000 -0.0000 -0.0000
vn -0.0000 1.0000 -0.0000
vn -0.0000 -1.0000 -0.0000
vt 0.000000 1.000000
vt 0.875000 1.000000
vt 0.875000 0.125000
vt 0.000000 1.000000
vt 0.875000 1.000000
vt 0.000000 0.750000
vt 0.875000 0.750000
vt 0.875000 1.000000
vt 0.000000 0.750000
vt 0.875000 0.750000
vt 0.875000 0.125000
vt 0.875000 1.000000
vt 0.000000 1.000000
vt 0.000000 1.000000
vt 0.875000 1.000000
vt 0.000000 0.125000
vt 0.875000 0.750000
vt 0.000000 0.750000
vt 0.000000 0.125000
vt 0.000000 0.750000
vt 0.875000 0.750000
vt 0.000000 1.000000
s 0
usemtl Flowerpot
f 36/97/25 39/105/25 37/100/25 34/92/25
f 35/94/26 36/98/26 34/93/26 33/89/26
f 40/108/27 35/95/27 33/90/27 38/102/27
f 39/106/28 40/109/28 38/103/28 37/101/28
f 38/104/29 33/91/29 34/93/29 37/101/29
f 39/107/30 36/99/30 35/96/30 40/110/30
o layer6
v 0.875000 0.812500 0.875000
v 0.875000 0.812500 0.125000
v 0.875000 0.750000 0.875000
v 0.875000 0.750000 0.125000
v 0.125000 0.812500 0.125000
v 0.125000 0.812500 0.875000
v 0.125000 0.750000 0.125000
v 0.125000 0.750000 0.875000
vn -0.0000 -0.0000 -1.0000
vn 1.0000 -0.0000 -0.0000
vn -0.0000 -0.0000 1.0000
vn -1.0000 -0.0000 -0.0000
vn -0.0000 1.0000 -0.0000
vn -0.0000 -1.0000 -0.0000
vt 0.000000 1.000000
vt 0.750000 1.000000
vt 0.750000 0.250000
vt 0.000000 1.000000
vt 0.750000 1.000000
vt 0.000000 0.937500
vt 0.750000 0.937500
vt 0.750000 1.000000
vt 0.000000 0.937500
vt 0.750000 0.937500
vt 0.750000 0.250000
vt 0.750000 1.000000
vt 0.000000 1.000000
vt 0.000000 1.000000
vt 0.750000 1.000000
vt 0.000000 0.250000
vt 0.750000 0.937500
vt 0.000000 0.937500
vt 0.000000 0.250000
vt 0.000000 0.937500
vt 0.750000 0.937500
vt 0.000000 1.000000
s 0
usemtl Flowerpot
f 44/119/31 47/127/31 45/122/31 42/114/31
f 43/116/32 44/120/32 42/115/32 41/111/32
f 48/130/33 43/117/33 41/112/33 46/124/33
f 47/128/34 48/131/34 46/125/34 45/123/34
f 46/126/35 41/113/35 42/115/35 45/123/35
f 47/129/36 44/121/36 43/118/36 48/132/36
o layer7
v 0.937500 0.875000 0.937500
v 0.937500 0.875000 0.062500
v 0.937500 0.812500 0.937500
v 0.937500 0.812500 0.062500
v 0.062500 0.875000 0.062500
v 0.062500 0.875000 0.937500
v 0.062500 0.812500 0.062500
v 0.062500 0.812500 0.937500
vn -0.0000 -0.0000 -1.0000
vn 1.0000 -0.0000 -0.0000
vn -0.0000 -0.0000 1.0000
vn -1.0000 -0.0000 -0.0000
vn -0.0000 1.0000 -0.0000
vn -0.0000 -1.0000 -0.0000
vt 0.000000 1.000000
vt 0.875000 1.000000
vt 0.875000 0.125000
vt 0.000000 1.000000
vt 0.875000 1.000000
vt 0.000000 0.937500
vt 0.875000 0.937500
vt 0.875000 1.000000
vt 0.000000 0.937500
vt 0.875000 0.937500
vt 0.875000 0.125000
vt 0.875000 1.000000
vt 0.000000 1.000000
vt 0.000000 1.000000
vt 0.875000 1.000000
vt 0.000000 0.125000
vt 0.875000 0.937500
vt 0.000000 0.937500
vt 0.000000 0.125000
vt 0.000000 0.937500
vt 0.875000 0.937500
vt 0.000000 1.000000
s 0
usemtl Flowerpot
f 52/141/37 55/149/37 53/144/37 50/136/37
f 51/138/38 52/142/38 50/137/38 49/133/38
f 56/152/39 51/139/39 49/134/39 54/146/39
f 55/150/40 56/153/40 54/147/40 53/145/40
f 54/148/41 49/135/41 50/137/41 53/145/41
f 55/151/42 52/143/42 51/140/42 56/154/42
o top
v 1.000000 1.000000 1.000000
v 1.000000 1.000000 0.000000
v 1.000000 0.875000 1.000000
v 1.000000 0.875000 0.000000
v 0.000000 1.000000 0.000000
v 0.000000 1.000000 1.000000
v 0.000000 0.875000 0.000000
v 0.000000 0.875000 1.000000
vn -0.0000 -0.0000 -1.0000
vn 1.0000 -0.0000 -0.0000
vn -0.0000 -0.0000 1.0000
vn -1.0000 -0.0000 -0.0000
vn -0.0000 1.0000 -0.0000
vn -0.0000 -1.0000 -0.0000
vt 0.000000 1.000000
vt 1.000000 1.000000
vt 1.000000 0.000000
vt 0.000000 1.000000
vt 1.000000 1.000000
vt 0.000000 0.875000
vt 1.000000 0.875000
vt 1.000000 1.000000
vt 0.000000 0.875000
vt 1.000000 0.875000
vt 1.000000 0.000000
vt 1.000000 1.000000
vt 0.000000 1.000000
vt 0.000000 1.000000
vt 1.000000 1.000000
vt 0.000000 0.000000
vt 1.000000 0.875000
vt 0.000000 0.875000
vt 0.000000 0.000000
vt 0.000000 0.875000
vt 1.000000 0.875000
vt 0.000000 1.000000
s 0
usemtl Flowerpot
f 60/163/43 63/171/43 61/166/43 58/158/43
f 59/160/44 60/164/44 58/159/44 57/155/44
f 64/174/45 59/161/45 57/156/45 62/168/45
f 63/172/46 64/175/46 62/169/46 61/167/46
f 62/170/47 57/157/47 58/159/47 61/167/47
f 63/173/48 60/165/48 59/162/48 64/176/48
