# Blender 3.4.1
# www.blender.org
mtllib ring_crafter.mtl
o base
v 0.937500 0.125000 0.937500
v 0.937500 0.125000 0.062500
v 0.937500 -0.000000 0.937500
v 0.937500 -0.000000 0.062500
v 0.062500 0.125000 0.062500
v 0.062500 0.125000 0.937500
v 0.062500 -0.000000 0.062500
v 0.062500 -0.000000 0.937500
vn -0.0000 -0.0000 -1.0000
vn 1.0000 -0.0000 -0.0000
vn -0.0000 -0.0000 1.0000
vn -1.0000 -0.0000 -0.0000
vn -0.0000 1.0000 -0.0000
vn -0.0000 -1.0000 -0.0000
vt 0.437500 0.609375
vt 0.656250 0.578125
vt 0.218750 1.000000
vt 0.437500 0.640625
vt 0.656250 0.609375
vt 0.218750 0.781250
vt 0.437500 0.578125
vt 0.656250 0.546875
vt 0.218750 0.781250
vt 0.437500 0.609375
vt 0.656250 0.578125
vt 0.218750 0.562500
vt 0.656250 0.640625
vt 0.437500 0.546875
vt 0.437500 0.781250
vt 0.437500 0.578125
vt 0.656250 0.546875
vt 0.437500 1.000000
vt 0.656250 0.609375
vt 0.437500 0.515625
vt 0.437500 0.562500
vt 0.437500 0.546875
vt 0.656250 0.515625
vt 0.437500 0.781250
s 0
usemtl crafter
f 4/10/1 7/19/1 5/13/1 2/4/1
f 3/7/2 4/11/2 2/5/2 1/1/2
f 8/22/3 3/8/3 1/2/3 6/16/3
f 7/20/4 8/23/4 6/17/4 5/14/4
f 6/18/5 1/3/5 2/6/5 5/15/5
f 7/21/6 4/12/6 3/9/6 8/24/6
o corner1
v 0.187500 0.937500 0.250000
v 0.187500 0.937500 0.000000
v 0.187500 0.625000 0.250000
v 0.187500 0.625000 0.000000
v -0.062500 0.937500 0.000000
v -0.062500 0.937500 0.250000
v -0.062500 0.625000 0.000000
v -0.062500 0.625000 0.250000
vn -0.0000 -0.0000 -1.0000
vn 1.0000 -0.0000 -0.0000
vn -0.0000 -0.0000 1.0000
vn -1.0000 -0.0000 -0.0000
vn -0.0000 1.0000 -0.0000
vn -0.0000 -1.0000 -0.0000
vt 0.250000 0.437500
vt 0.500000 0.437500
vt 0.625000 0.937500
vt 0.187500 0.437500
vt 0.312500 0.437500
vt 0.625000 0.875000
vt 0.250000 0.359375
vt 0.500000 0.359375
vt 0.625000 0.515625
vt 0.187500 0.359375
vt 0.312500 0.359375
vt 0.625000 0.453125
vt 0.250000 0.437500
vt 0.562500 0.515625
vt 0.687500 0.875000
vt 0.437500 0.437500
vt 0.625000 0.515625
vt 0.687500 0.937500
vt 0.250000 0.359375
vt 0.562500 0.437500
vt 0.687500 0.453125
vt 0.437500 0.359375
vt 0.625000 0.437500
vt 0.687500 0.515625
s 0
usemtl crafter
f 12/34/7 15/43/7 13/37/7 10/28/7
f 11/31/8 12/35/8 10/29/8 9/25/8
f 16/46/9 11/32/9 9/26/9 14/40/9
f 15/44/10 16/47/10 14/41/10 13/38/10
f 14/42/11 9/27/11 10/30/11 13/39/11
f 15/45/12 12/36/12 11/33/12 16/48/12
o corner2
v 1.000000 0.937500 0.250000
v 1.000000 0.937500 0.000000
v 1.000000 0.625000 0.250000
v 1.000000 0.625000 0.000000
v 0.750000 0.937500 0.000000
v 0.750000 0.937500 0.250000
v 0.750000 0.625000 0.000000
v 0.750000 0.625000 0.250000
vn -0.0000 -0.0000 -1.0000
vn 1.0000 -0.0000 -0.0000
vn -0.0000 -0.0000 1.0000
vn -1.0000 -0.0000 -0.0000
vn -0.0000 1.0000 -0.0000
vn -0.0000 -1.0000 -0.0000
vt 0.531250 0.734375
vt 0.375000 0.468750
vt 0.593750 0.734375
vt 0.500000 0.515625
vt 0.593750 0.734375
vt 0.593750 0.671875
vt 0.531250 0.656250
vt 0.375000 0.390625
vt 0.312500 0.390625
vt 0.500000 0.437500
vt 0.593750 0.656250
vt 0.312500 0.328125
vt 0.562500 0.515625
vt 0.375000 0.468750
vt 0.656250 0.671875
vt 0.312500 0.468750
vt 0.437500 0.468750
vt 0.656250 0.734375
vt 0.562500 0.437500
vt 0.375000 0.390625
vt 0.375000 0.328125
vt 0.312500 0.390625
vt 0.437500 0.390625
vt 0.375000 0.390625
s 0
usemtl crafter
f 20/58/13 23/67/13 21/61/13 18/52/13
f 19/55/14 20/59/14 18/53/14 17/49/14
f 24/70/15 19/56/15 17/50/15 22/64/15
f 23/68/16 24/71/16 22/65/16 21/62/16
f 22/66/17 17/51/17 18/54/17 21/63/17
f 23/69/18 20/60/18 19/57/18 24/72/18
o corner3
v 1.000000 0.937500 1.000000
v 1.000000 0.937500 0.750000
v 1.000000 0.625000 1.000000
v 1.000000 0.625000 0.750000
v 0.750000 0.937500 0.750000
v 0.750000 0.937500 1.000000
v 0.750000 0.625000 0.750000
v 0.750000 0.625000 1.000000
vn -0.0000 -0.0000 -1.0000
vn 1.0000 -0.0000 -0.0000
vn -0.0000 -0.0000 1.0000
vn -1.0000 -0.0000 -0.0000
vn -0.0000 1.0000 -0.0000
vn -0.0000 -1.0000 -0.0000
vt 0.187500 0.515625
vt 0.312500 0.515625
vt 0.500000 0.437500
vt 0.125000 0.515625
vt 0.250000 0.515625
vt 0.500000 0.375000
vt 0.187500 0.437500
vt 0.312500 0.437500
vt 0.562500 0.437500
vt 0.125000 0.437500
vt 0.250000 0.437500
vt 0.562500 0.375000
vt 0.187500 0.515625
vt 0.437500 0.515625
vt 0.562500 0.375000
vt 0.250000 0.515625
vt 0.500000 0.515625
vt 0.562500 0.437500
vt 0.187500 0.437500
vt 0.437500 0.437500
vt 0.625000 0.375000
vt 0.250000 0.437500
vt 0.500000 0.437500
vt 0.625000 0.437500
s 0
usemtl crafter
f 28/82/19 31/91/19 29/85/19 26/76/19
f 27/79/20 28/83/20 26/77/20 25/73/20
f 32/94/21 27/80/21 25/74/21 30/88/21
f 31/92/22 32/95/22 30/89/22 29/86/22
f 30/90/23 25/75/23 26/78/23 29/87/23
f 31/93/24 28/84/24 27/81/24 32/96/24
o corner4
v 0.187500 0.937500 1.000000
v 0.187500 0.937500 0.750000
v 0.187500 0.625000 1.000000
v 0.187500 0.625000 0.750000
v -0.062500 0.937500 0.750000
v -0.062500 0.937500 1.000000
v -0.062500 0.625000 0.750000
v -0.062500 0.625000 1.000000
vn -0.0000 -0.0000 -1.0000
vn 1.0000 -0.0000 -0.0000
vn -0.0000 -0.0000 1.0000
vn -1.0000 -0.0000 -0.0000
vn -0.0000 1.0000 -0.0000
vn -0.0000 -1.0000 -0.0000
vt 0.562500 1.000000
vt 0.125000 0.437500
vt 0.375000 0.390625
vt 0.000000 0.437500
vt 0.625000 1.000000
vt 0.375000 0.328125
vt 0.562500 0.921875
vt 0.125000 0.359375
vt 0.625000 1.000000
vt 0.000000 0.359375
vt 0.625000 0.921875
vt 0.625000 0.937500
vt 0.062500 0.437500
vt 0.125000 0.437500
vt 0.437500 0.328125
vt 0.062500 0.437500
vt 0.187500 0.437500
vt 0.437500 0.390625
vt 0.062500 0.359375
vt 0.125000 0.359375
vt 0.687500 0.937500
vt 0.062500 0.359375
vt 0.187500 0.359375
vt 0.687500 1.000000
s 0
usemtl crafter
f 36/106/25 39/115/25 37/109/25 34/100/25
f 35/103/26 36/107/26 34/101/26 33/97/26
f 40/118/27 35/104/27 33/98/27 38/112/27
f 39/116/28 40/119/28 38/113/28 37/110/28
f 38/114/29 33/99/29 34/102/29 37/111/29
f 39/117/30 36/108/30 35/105/30 40/120/30
o gem1
v 0.125000 1.000000 0.187500
v 0.125000 1.000000 0.062500
v 0.125000 0.937500 0.187500
v 0.125000 0.937500 0.062500
v 0.000000 1.000000 0.062500
v 0.000000 1.000000 0.187500
v 0.000000 0.937500 0.062500
v 0.000000 0.937500 0.187500
vn -0.0000 -0.0000 -1.0000
vn 1.0000 -0.0000 -0.0000
vn -0.0000 -0.0000 1.0000
vn -1.0000 -0.0000 -0.0000
vn -0.0000 1.0000 -0.0000
vn -0.0000 -1.0000 -0.0000
vt 0.375000 0.750000
vt 0.500000 0.687500
vt 0.000000 0.750000
vt 0.250000 0.625000
vt 0.500000 0.750000
vt 0.000000 0.625000
vt 0.375000 0.687500
vt 0.500000 0.625000
vt 0.250000 1.000000
vt 0.250000 0.562500
vt 0.500000 0.687500
vt 0.250000 0.875000
vt 0.375000 0.625000
vt 0.125000 0.625000
vt 0.375000 0.687500
vt 0.500000 0.625000
vt 0.125000 0.750000
vt 0.375000 0.562500
vt 0.375000 0.875000
vt 0.375000 0.625000
vt 0.500000 0.562500
vt 0.375000 1.000000
s 0
usemtl gems
f 44/130/31 47/138/31 45/133/31 42/124/31
f 43/127/32 44/131/32 42/125/32 41/121/32
f 48/140/33 43/128/33 41/122/33 46/135/33
f 47/138/34 48/141/34 46/136/34 45/133/34
f 46/137/35 41/123/35 42/126/35 45/134/35
f 47/139/36 44/132/36 43/129/36 48/142/36
o gem2
v 0.125000 1.000000 0.937500
v 0.125000 1.000000 0.812500
v 0.125000 0.937500 0.937500
v 0.125000 0.937500 0.812500
v 0.000000 1.000000 0.812500
v 0.000000 1.000000 0.937500
v 0.000000 0.937500 0.812500
v 0.000000 0.937500 0.937500
vn -0.0000 -0.0000 -1.0000
vn 1.0000 -0.0000 -0.0000
vn -0.0000 -0.0000 1.0000
vn -1.0000 -0.0000 -0.0000
vn -0.0000 1.0000 -0.0000
vn -0.0000 -1.0000 -0.0000
vt 0.125000 0.625000
vt 0.500000 0.875000
vt 0.125000 1.000000
vt 0.375000 0.937500
vt 0.250000 0.625000
vt 0.125000 0.875000
vt 0.125000 0.562500
vt 0.500000 0.812500
vt 0.125000 0.875000
vt 0.375000 0.875000
vt 0.250000 0.562500
vt 0.125000 0.750000
vt 0.500000 0.937500
vt 0.375000 0.812500
vt 0.250000 0.875000
vt 0.375000 0.875000
vt 0.500000 0.812500
vt 0.250000 1.000000
vt 0.500000 0.875000
vt 0.375000 0.750000
vt 0.250000 0.750000
vt 0.375000 0.812500
vt 0.500000 0.750000
vt 0.250000 0.875000
s 0
usemtl gems
f 52/152/37 55/161/37 53/155/37 50/146/37
f 51/149/38 52/153/38 50/147/38 49/143/38
f 56/164/39 51/150/39 49/144/39 54/158/39
f 55/162/40 56/165/40 54/159/40 53/156/40
f 54/160/41 49/145/41 50/148/41 53/157/41
f 55/163/42 52/154/42 51/151/42 56/166/42
o gem3
v 0.937500 1.000000 0.187500
v 0.937500 1.000000 0.062500
v 0.937500 0.937500 0.187500
v 0.937500 0.937500 0.062500
v 0.812500 1.000000 0.062500
v 0.812500 1.000000 0.187500
v 0.812500 0.937500 0.062500
v 0.812500 0.937500 0.187500
vn -0.0000 -0.0000 -1.0000
vn 1.0000 -0.0000 -0.0000
vn -0.0000 -0.0000 1.0000
vn -1.0000 -0.0000 -0.0000
vn -0.0000 1.0000 -0.0000
vn -0.0000 -1.0000 -0.0000
vt 0.250000 0.687500
vt 0.125000 0.625000
vt 0.000000 1.000000
vt 0.250000 0.750000
vt 0.375000 0.687500
vt 0.000000 0.875000
vt 0.250000 0.625000
vt 0.125000 0.562500
vt 0.000000 0.875000
vt 0.250000 0.687500
vt 0.375000 0.625000
vt 0.000000 0.750000
vt 0.375000 0.750000
vt 0.375000 1.000000
vt 0.125000 0.875000
vt 0.000000 0.625000
vt 0.500000 1.000000
vt 0.125000 1.000000
vt 0.375000 0.687500
vt 0.375000 0.937500
vt 0.125000 0.750000
vt 0.000000 0.562500
vt 0.500000 0.937500
vt 0.125000 0.875000
s 0
usemtl gems
f 60/176/43 63/185/43 61/179/43 58/170/43
f 59/173/44 60/177/44 58/171/44 57/167/44
f 64/188/45 59/174/45 57/168/45 62/182/45
f 63/186/46 64/189/46 62/183/46 61/180/46
f 62/184/47 57/169/47 58/172/47 61/181/47
f 63/187/48 60/178/48 59/175/48 64/190/48
o gem4
v 0.937500 1.000000 0.937500
v 0.937500 1.000000 0.812500
v 0.937500 0.937500 0.937500
v 0.937500 0.937500 0.812500
v 0.812500 1.000000 0.812500
v 0.812500 1.000000 0.937500
v 0.812500 0.937500 0.812500
v 0.812500 0.937500 0.937500
vn -0.0000 -0.0000 -1.0000
vn 1.0000 -0.0000 -0.0000
vn -0.0000 -0.0000 1.0000
vn -1.0000 -0.0000 -0.0000
vn -0.0000 1.0000 -0.0000
vn -0.0000 -1.0000 -0.0000
vt 0.125000 0.562500
vt 0.375000 0.562500
vt 0.125000 0.750000
vt 0.000000 0.562500
vt 0.250000 0.562500
vt 0.125000 0.625000
vt 0.125000 0.500000
vt 0.375000 0.500000
vt 0.250000 0.875000
vt 0.000000 0.500000
vt 0.250000 0.500000
vt 0.250000 0.750000
vt 0.125000 0.562500
vt 0.375000 0.562500
vt 0.250000 0.625000
vt 0.250000 0.562500
vt 0.500000 0.562500
vt 0.250000 0.750000
vt 0.125000 0.500000
vt 0.375000 0.500000
vt 0.375000 0.750000
vt 0.250000 0.500000
vt 0.500000 0.500000
vt 0.375000 0.875000
s 0
usemtl gems
f 68/200/49 71/209/49 69/203/49 66/194/49
f 67/197/50 68/201/50 66/195/50 65/191/50
f 72/212/51 67/198/51 65/192/51 70/206/51
f 71/210/52 72/213/52 70/207/52 69/204/52
f 70/208/53 65/193/53 66/196/53 69/205/53
f 71/211/54 68/202/54 67/199/54 72/214/54
o layer_6
v 0.875000 0.875000 0.937500
v 0.875000 0.875000 0.062500
v 0.875000 0.687500 0.937500
v 0.875000 0.687500 0.062500
v 0.000000 0.875000 0.062500
v 0.000000 0.875000 0.937500
v 0.000000 0.687500 0.062500
v 0.000000 0.687500 0.937500
vn -0.0000 -0.0000 -1.0000
vn 1.0000 -0.0000 -0.0000
vn -0.0000 -0.0000 1.0000
vn -1.0000 -0.0000 -0.0000
vn -0.0000 1.0000 -0.0000
vn -0.0000 -1.0000 -0.0000
vt 0.437500 0.875000
vt 0.656250 0.828125
vt 0.000000 1.000000
vt 0.125000 0.562500
vt 0.656250 0.875000
vt 0.000000 0.781250
vt 0.437500 0.828125
vt 0.656250 0.781250
vt 0.000000 0.781250
vt 0.125000 0.515625
vt 0.656250 0.828125
vt 0.000000 0.562500
vt 0.343750 0.562500
vt 0.437500 0.781250
vt 0.218750 0.781250
vt 0.437500 0.828125
vt 0.656250 0.781250
vt 0.218750 1.000000
vt 0.343750 0.515625
vt 0.437500 0.734375
vt 0.218750 0.562500
vt 0.437500 0.781250
vt 0.656250 0.734375
vt 0.218750 0.781250
s 0
usemtl crafter
f 76/224/55 79/233/55 77/227/55 74/218/55
f 75/221/56 76/225/56 74/219/56 73/215/56
f 80/236/57 75/222/57 73/216/57 78/230/57
f 79/234/58 80/237/58 78/231/58 77/228/58
f 78/232/59 73/217/59 74/220/59 77/229/59
f 79/235/60 76/226/60 75/223/60 80/238/60
o layer2
v 0.750000 0.250000 0.750000
v 0.750000 0.250000 0.250000
v 0.750000 0.125000 0.750000
v 0.750000 0.125000 0.250000
v 0.250000 0.250000 0.250000
v 0.250000 0.250000 0.750000
v 0.250000 0.125000 0.250000
v 0.250000 0.125000 0.750000
vn -0.0000 -0.0000 -1.0000
vn 1.0000 -0.0000 -0.0000
vn -0.0000 -0.0000 1.0000
vn -1.0000 -0.0000 -0.0000
vn -0.0000 1.0000 -0.0000
vn -0.0000 -1.0000 -0.0000
vt 0.562500 0.375000
vt 0.125000 0.359375
vt 0.000000 0.562500
vt 0.593750 0.671875
vt 0.687500 0.375000
vt 0.000000 0.437500
vt 0.562500 0.343750
vt 0.125000 0.328125
vt 0.437500 1.000000
vt 0.593750 0.640625
vt 0.687500 0.343750
vt 0.437500 0.875000
vt 0.718750 0.671875
vt 0.125000 0.359375
vt 0.125000 0.437500
vt 0.000000 0.359375
vt 0.250000 0.359375
vt 0.125000 0.562500
vt 0.718750 0.640625
vt 0.125000 0.328125
vt 0.562500 0.875000
vt 0.000000 0.328125
vt 0.250000 0.328125
vt 0.562500 1.000000
s 0
usemtl crafter
f 84/248/61 87/257/61 85/251/61 82/242/61
f 83/245/62 84/249/62 82/243/62 81/239/62
f 88/260/63 83/246/63 81/240/63 86/254/63
f 87/258/64 88/261/64 86/255/64 85/252/64
f 86/256/65 81/241/65 82/244/65 85/253/65
f 87/259/66 84/250/66 83/247/66 88/262/66
o layer3
v 0.562500 0.500000 0.562500
v 0.562500 0.500000 0.437500
v 0.562500 0.250000 0.562500
v 0.562500 0.250000 0.437500
v 0.437500 0.500000 0.437500
v 0.437500 0.500000 0.562500
v 0.437500 0.250000 0.437500
v 0.437500 0.250000 0.562500
vn -0.0000 -0.0000 -1.0000
vn 1.0000 -0.0000 -0.0000
vn -0.0000 -0.0000 1.0000
vn -1.0000 -0.0000 -0.0000
vn -0.0000 1.0000 -0.0000
vn -0.0000 -1.0000 -0.0000
vt 0.656250 0.781250
vt 0.687500 0.640625
vt 0.312500 0.515625
vt 0.656250 0.843750
vt 0.687500 0.781250
vt 0.312500 0.484375
vt 0.656250 0.718750
vt 0.687500 0.578125
vt 0.562500 0.343750
vt 0.656250 0.781250
vt 0.687500 0.718750
vt 0.562500 0.312500
vt 0.687500 0.843750
vt 0.656250 0.578125
vt 0.343750 0.484375
vt 0.656250 0.640625
vt 0.687500 0.578125
vt 0.343750 0.515625
vt 0.687500 0.781250
vt 0.656250 0.515625
vt 0.593750 0.312500
vt 0.656250 0.578125
vt 0.687500 0.515625
vt 0.593750 0.343750
s 0
usemtl crafter
f 92/272/67 95/281/67 93/275/67 90/266/67
f 91/269/68 92/273/68 90/267/68 89/263/68
f 96/284/69 91/270/69 89/264/69 94/278/69
f 95/282/70 96/285/70 94/279/70 93/276/70
f 94/280/71 89/265/71 90/268/71 93/277/71
f 95/283/72 92/274/72 91/271/72 96/286/72
o layer4
v 0.625000 0.625000 0.625000
v 0.625000 0.625000 0.375000
v 0.625000 0.500000 0.625000
v 0.625000 0.500000 0.375000
v 0.375000 0.625000 0.375000
v 0.375000 0.625000 0.625000
v 0.375000 0.500000 0.375000
v 0.375000 0.500000 0.625000
vn -0.0000 -0.0000 -1.0000
vn 1.0000 -0.0000 -0.0000
vn -0.0000 -0.0000 1.0000
vn -1.0000 -0.0000 -0.0000
vn -0.0000 1.0000 -0.0000
vn -0.0000 -1.0000 -0.0000
vt 0.250000 0.359375
vt 0.500000 0.359375
vt 0.500000 0.375000
vt 0.562500 0.921875
vt 0.312500 0.359375
vt 0.500000 0.312500
vt 0.250000 0.328125
vt 0.500000 0.328125
vt 0.625000 0.453125
vt 0.562500 0.890625
vt 0.312500 0.328125
vt 0.625000 0.390625
vt 0.625000 0.921875
vt 0.656250 0.875000
vt 0.562500 0.312500
vt 0.437500 0.359375
vt 0.718750 0.875000
vt 0.562500 0.375000
vt 0.625000 0.890625
vt 0.656250 0.843750
vt 0.687500 0.390625
vt 0.437500 0.328125
vt 0.718750 0.843750
vt 0.687500 0.453125
s 0
usemtl crafter
f 100/296/73 103/305/73 101/299/73 98/290/73
f 99/293/74 100/297/74 98/291/74 97/287/74
f 104/308/75 99/294/75 97/288/75 102/302/75
f 103/306/76 104/309/76 102/303/76 101/300/76
f 102/304/77 97/289/77 98/292/77 101/301/77
f 103/307/78 100/298/78 99/295/78 104/310/78
o layer5
v 0.687500 0.687500 0.687500
v 0.687500 0.687500 0.312500
v 0.687500 0.625000 0.687500
v 0.687500 0.625000 0.312500
v 0.312500 0.687500 0.312500
v 0.312500 0.687500 0.687500
v 0.312500 0.625000 0.312500
v 0.312500 0.625000 0.687500
vn -0.0000 -0.0000 -1.0000
vn 1.0000 -0.0000 -0.0000
vn -0.0000 -0.0000 1.0000
vn -1.0000 -0.0000 -0.0000
vn -0.0000 1.0000 -0.0000
vn -0.0000 -1.0000 -0.0000
vt 0.656250 0.718750
vt 0.750000 0.703125
vt 0.437500 0.734375
vt 0.625000 0.390625
vt 0.750000 0.718750
vt 0.437500 0.640625
vt 0.656250 0.703125
vt 0.750000 0.687500
vt 0.343750 0.562500
vt 0.625000 0.375000
vt 0.750000 0.703125
vt 0.343750 0.468750
vt 0.718750 0.390625
vt 0.656250 0.687500
vt 0.531250 0.640625
vt 0.656250 0.703125
vt 0.750000 0.687500
vt 0.531250 0.734375
vt 0.718750 0.375000
vt 0.656250 0.671875
vt 0.437500 0.468750
vt 0.656250 0.687500
vt 0.750000 0.671875
vt 0.437500 0.562500
s 0
usemtl crafter
f 108/320/79 111/329/79 109/323/79 106/314/79
f 107/317/80 108/321/80 106/315/80 105/311/80
f 112/332/81 107/318/81 105/312/81 110/326/81
f 111/330/82 112/333/82 110/327/82 109/324/82
f 110/328/83 105/313/83 106/316/83 109/325/83
f 111/331/84 108/322/84 107/319/84 112/334/84
